<svg xmlns="http://www.w3.org/2000/svg" viewBox="0 0 92 106"><path fill="#fff" d="m-.041 83.334 46 22.666 46-22.666V0h-92v83.334Z"/><path fill="#fff" d="m-.041 83.334 46 22.666 46-22.666V0h-92v83.334Z"/><path fill="#ff492c" d="M70.959 0h21v21h-21V0Z"/><path fill="#fff" fill-rule="evenodd" d="M86.01 8.042h-1.794c.048-.281.222-.438.574-.617l.33-.167c.592-.303.906-.644.906-1.201a.971.971 0 0 0-.406-.828c-.266-.2-.591-.297-.965-.297-.299 0-.57.075-.819.232a1.382 1.382 0 0 0-.542.59l.52.52c.2-.406.494-.607.879-.607.325 0 .525.168.525.4 0 .195-.097.358-.471.547l-.212.103c-.46.232-.78.497-.965.8-.184.298-.276.682-.276 1.141v.125h2.716v-.741ZM85.765 9.642H82.8l-1.484 2.57h2.967l1.483 2.569 1.483-2.57-1.483-2.57Z"/><path fill="#fff" fill-rule="evenodd" d="M81.568 13.928c-1.892 0-3.43-1.537-3.43-3.427s1.538-3.427 3.43-3.427l1.174-2.456a6 6 0 0 0-7.176 5.883 6 6 0 0 0 6.002 5.998 5.977 5.977 0 0 0 3.535-1.15l-1.3-2.251c-.601.517-1.382.83-2.235.83Z"/><path fill-rule="evenodd" d="M70.906 20.534V.667h1.085v19.867h-1.085Z"/><path d="M-.041 83.52v-6.5l46 23.042 46-23.043v6.5l-46 22.48-46-22.48Z"/><path fill="#ff492c" d="M-.041 77.565v-6.5l46 23.043 46-23.043v6.5l-46 22.48-46-22.48Z"/><path fill="#ffc800" d="M-.041 71.63v-6.5l46 23.043 46-23.042v6.5l-46 22.48-46-22.48Z"/><path fill-rule="evenodd" d="m45.959 104.79 44.915-22.131V1.085H1.044v81.574l44.915 22.13Zm-46-21.456 46 22.666 46-22.666V0h-92v83.334Z"/><path fill-rule="evenodd" d="M.583 19.991h90.951v1.085H.584v-1.085Z"/><path d="M5.464 12.982V8.258h1.6c.323 0 .607.05.85.148.243.099.432.25.567.45.135.2.203.448.203.744 0 .185-.047.355-.14.51s-.22.29-.387.402c.22.113.39.262.51.449s.178.411.178.672c0 .288-.065.533-.195.735-.131.203-.313.356-.547.46s-.509.155-.824.155H5.464Zm.904-2.8h.715c.203 0 .363-.052.48-.156.117-.103.175-.25.175-.438a.528.528 0 0 0-.196-.44c-.13-.103-.308-.155-.533-.155h-.64v1.188Zm0 1.984h.824c.22 0 .393-.055.52-.165s.188-.258.188-.442a.55.55 0 0 0-.209-.456c-.14-.11-.33-.165-.573-.165h-.75v1.228ZM10.27 12.982V8.258h2.99v.844h-2.066v1.073h1.782v.823h-1.782v1.14h2.093v.844h-3.018ZM16.506 13.063c-.238 0-.461-.029-.668-.087-.207-.058-.391-.141-.553-.247s-.296-.223-.402-.354a.98.98 0 0 1-.206-.411l.904-.27a.877.877 0 0 0 .31.394.95.95 0 0 0 .561.173c.239.004.433-.048.584-.155a.496.496 0 0 0 .227-.42.472.472 0 0 0-.18-.373 1.215 1.215 0 0 0-.489-.234l-.614-.162a1.913 1.913 0 0 1-.608-.267 1.297 1.297 0 0 1-.411-.442c-.1-.175-.15-.38-.15-.614 0-.445.148-.793.443-1.042.295-.25.712-.375 1.252-.375.302 0 .566.044.794.132.227.088.417.212.57.374.153.162.27.353.351.574l-.898.276a.838.838 0 0 0-.297-.391.891.891 0 0 0-.547-.162c-.225 0-.402.051-.53.155a.532.532 0 0 0-.192.44c0 .148.05.265.152.35.101.086.24.151.415.196l.621.156c.405.098.72.276.945.533.225.256.337.542.337.856 0 .28-.067.524-.202.733a1.33 1.33 0 0 1-.587.489c-.256.117-.567.176-.932.176ZM20.691 12.982v-3.88h-1.417v-.844h3.753v.844h-1.411v3.88h-.925ZM28.177 13.063c-.238 0-.462-.029-.668-.087-.207-.058-.392-.141-.554-.247s-.296-.223-.401-.354a.98.98 0 0 1-.206-.411l.904-.27a.877.877 0 0 0 .31.394.95.95 0 0 0 .56.173c.24.004.434-.048.584-.155a.496.496 0 0 0 .227-.42.472.472 0 0 0-.18-.373 1.215 1.215 0 0 0-.488-.234l-.615-.162a1.913 1.913 0 0 1-.607-.267 1.297 1.297 0 0 1-.412-.442c-.099-.175-.149-.38-.149-.614 0-.445.148-.793.443-1.042.294-.25.712-.375 1.252-.375.302 0 .566.044.793.132.227.088.417.212.57.374.153.162.27.353.352.574l-.898.276a.838.838 0 0 0-.297-.391.891.891 0 0 0-.547-.162c-.225 0-.402.051-.53.155a.532.532 0 0 0-.192.44c0 .148.05.265.152.35.1.086.24.151.415.196l.62.156c.406.098.72.276.946.533.225.256.337.542.337.856 0 .28-.067.524-.202.733a1.33 1.33 0 0 1-.588.489c-.256.117-.567.176-.931.176ZM33.523 13.063c-.478 0-.9-.104-1.266-.313s-.653-.497-.86-.864a2.514 2.514 0 0 1-.311-1.26c0-.48.104-.904.31-1.272.208-.366.492-.653.854-.86a2.48 2.48 0 0 1 1.252-.31c.477 0 .897.104 1.26.313s.646.497.853.864.31.79.31 1.266c0 .473-.102.892-.306 1.259-.205.367-.489.655-.851.864s-.777.314-1.246.314Zm0-.843c.288 0 .54-.069.76-.206a1.42 1.42 0 0 0 .512-.564c.123-.238.185-.513.185-.823 0-.315-.062-.592-.188-.83s-.3-.427-.52-.564a1.423 1.423 0 0 0-.77-.206 1.413 1.413 0 0 0-1.282.77 1.75 1.75 0 0 0-.19.83c0 .31.064.585.19.823a1.42 1.42 0 0 0 1.303.77ZM37.35 12.982V8.258h3.03v.844h-2.105v1.133h1.755v.844h-1.755v1.903h-.925ZM42.763 12.982v-3.88h-1.417v-.844h3.753v.844h-1.411v3.88h-.925ZM47.32 12.982l-1.398-4.724h.938l1.344 4.724h-.885Zm.12 0 1.29-4.724h.837l-1.283 4.724h-.844Zm2.64 0-1.268-4.724h.836l1.317 4.724h-.885Zm.088 0 1.356-4.724h.939l-1.411 4.724h-.884ZM52.786 12.982l1.863-4.724h.925l-1.808 4.724h-.98Zm.878-1.039v-.817h2.963v.817h-2.963Zm2.855 1.04-1.81-4.725h.926l1.863 4.724h-.979ZM58.74 12.982V8.258h1.754c.333 0 .628.065.885.195.257.131.457.31.6.537s.216.491.216.793c0 .297-.075.562-.225.793-.152.233-.358.412-.618.54s-.558.193-.891.193h-.797v1.673h-.925Zm.924-2.517h.837c.14 0 .265-.03.375-.088s.198-.14.264-.243a.648.648 0 0 0 .097-.35c0-.203-.073-.368-.22-.494s-.333-.189-.563-.189h-.79v1.364Zm1.674 2.517-1.093-1.896.708-.506 1.432 2.402h-1.047ZM63.768 12.982V8.258h2.99v.844h-2.066v1.073h1.783v.823h-1.783v1.14h2.093v.844h-3.017ZM37.235 31.231v-.681c0-.13.04-.275.122-.432s.193-.315.337-.472.312-.304.506-.439l.716-.514c.099-.067.192-.143.28-.23.088-.084.16-.178.216-.28a.6.6 0 0 0 0-.61c-.057-.095-.139-.169-.246-.223s-.241-.08-.399-.08a.787.787 0 0 0-.361.08.744.744 0 0 0-.26.216.827.827 0 0 0-.142.29l-.951-.162c.045-.224.141-.433.29-.627.148-.194.343-.35.584-.47s.514-.178.82-.178c.35 0 .652.063.904.19s.447.297.584.515c.138.219.206.472.206.76 0 .292-.08.552-.24.779-.16.227-.379.44-.658.638l-.64.465c-.132.091-.244.19-.339.297a1.174 1.174 0 0 0-.215.359h2.153v.81h-3.267ZM43.66 31.313c-.382 0-.72-.105-1.012-.314s-.522-.497-.689-.864c-.166-.367-.25-.788-.25-1.266 0-.477.084-.898.25-1.266.167-.366.395-.654.685-.864.291-.209.628-.313 1.01-.313s.721.104 1.016.313c.294.21.525.498.692.864.166.368.25.79.25 1.266 0 .478-.084.9-.25 1.266a2.1 2.1 0 0 1-.689.864 1.7 1.7 0 0 1-1.012.314Zm0-.837a.81.81 0 0 0 .544-.206 1.35 1.35 0 0 0 .375-.567 2.38 2.38 0 0 0 .135-.834c0-.314-.045-.594-.135-.837s-.215-.432-.375-.57-.343-.206-.55-.206a.797.797 0 0 0-.54.206c-.157.138-.28.327-.368.57s-.132.523-.132.837c0 .315.044.593.132.834.088.24.212.43.371.566.16.138.341.207.544.207ZM46.867 31.231v-.681c0-.13.04-.275.122-.432.08-.157.193-.315.337-.472.144-.158.313-.304.506-.439l.716-.514c.098-.067.192-.143.28-.23a1.2 1.2 0 0 0 .216-.28.604.604 0 0 0 .084-.293.582.582 0 0 0-.33-.54.891.891 0 0 0-.398-.08c-.135 0-.256.027-.362.08s-.192.126-.26.216-.115.187-.141.29l-.952-.162c.045-.224.142-.433.29-.627s.343-.35.584-.47c.24-.119.514-.178.82-.178.35 0 .652.063.904.19s.447.297.584.515c.138.219.206.472.206.76 0 .292-.08.552-.239.779-.16.227-.38.44-.658.638l-.642.465c-.13.091-.243.19-.338.297a1.193 1.193 0 0 0-.215.359h2.153v.81h-3.267ZM53.083 31.313c-.216 0-.438-.037-.665-.108a1.927 1.927 0 0 1-.613-.324 1.291 1.291 0 0 1-.403-.533l.844-.25c.099.144.217.25.355.317s.28.102.428.102c.234 0 .424-.072.57-.213s.22-.332.22-.57c0-.221-.07-.406-.212-.554s-.33-.223-.564-.223a.794.794 0 0 0-.385.095.79.79 0 0 0-.27.223l-.83-.183.284-2.585h2.673v.837H52.63l-.135 1.134c.121-.068.257-.123.405-.165s.308-.062.479-.058a1.376 1.376 0 0 1 1.205.692c.124.213.185.462.185.745 0 .32-.072.601-.215.844s-.342.434-.594.57a1.803 1.803 0 0 1-.878.207ZM13.54 53.98V42.94H9.458v-2.96h11.36v2.96h-4.08v11.04h-3.2ZM25.62 54.22c-1.054 0-1.98-.224-2.78-.671a4.93 4.93 0 0 1-1.89-1.85c-.46-.786-.69-1.693-.69-2.72s.222-1.933.67-2.72a4.786 4.786 0 0 1 1.88-1.85c.806-.446 1.722-.67 2.75-.67 1.052 0 1.982.224 2.79.67a4.791 4.791 0 0 1 1.88 1.85c.446.787.67 1.694.67 2.72s-.224 1.934-.67 2.72a4.796 4.796 0 0 1-1.87 1.85c-.8.447-1.714.67-2.74.67Zm0-2.881c.399 0 .756-.1 1.07-.3.312-.2.56-.476.74-.83.18-.352.27-.763.27-1.23s-.09-.876-.27-1.23a2.06 2.06 0 0 0-.75-.83c-.32-.2-.688-.3-1.101-.3s-.78.1-1.1.3c-.32.2-.57.477-.75.83-.18.353-.27.764-.27 1.23s.09.878.27 1.23c.18.353.433.63.76.83s.703.3 1.13.3ZM32.519 57.98v-14h2.94l.18 1.84v12.16h-3.12Zm5.96-3.76c-.827 0-1.52-.211-2.08-.631s-.98-1.023-1.26-1.81c-.28-.786-.42-1.72-.42-2.8 0-1.093.14-2.03.42-2.81.28-.78.7-1.38 1.26-1.8s1.253-.63 2.08-.63c.933 0 1.74.21 2.42.63s1.2 1.02 1.56 1.8c.36.78.54 1.717.54 2.81 0 1.08-.18 2.014-.54 2.8-.36.787-.88 1.39-1.56 1.81s-1.487.63-2.42.63Zm-.8-2.881c.4 0 .753-.1 1.06-.3s.553-.476.74-.83c.186-.352.28-.763.28-1.23s-.087-.876-.26-1.23a2.02 2.02 0 0 0-.73-.83c-.313-.2-.67-.3-1.07-.3s-.757.1-1.07.3c-.314.2-.557.48-.73.84-.173.36-.26.767-.26 1.22 0 .467.087.877.26 1.23.173.353.413.63.72.83.306.2.66.3 1.06.3ZM48.998 44.78v-2.92c.36.026.73-.054 1.11-.24s.753-.437 1.12-.75c.367-.314.69-.624.97-.93l2.04 1.979c-.493.56-1.02 1.07-1.579 1.53-.56.46-1.14.814-1.74 1.06a3.96 3.96 0 0 1-1.92.27Zm2.88 9.2V41.7l.32-1.72h2.74v14h-3.06ZM63.198 54.22c-1.146 0-2.167-.31-3.06-.931-.893-.62-1.59-1.473-2.09-2.56s-.75-2.337-.75-3.75.25-2.663.75-3.75 1.193-1.94 2.08-2.56 1.903-.93 3.05-.93c1.16 0 2.187.31 3.08.93.893.62 1.597 1.474 2.11 2.56s.77 2.337.77 3.75-.253 2.663-.76 3.75-1.207 1.94-2.1 2.56c-.893.62-1.92.93-3.08.93Zm.02-2.921c.533 0 1.01-.187 1.43-.56s.75-.883.99-1.53.36-1.39.36-2.23c0-.853-.12-1.606-.36-2.26-.24-.653-.574-1.166-1-1.54a2.155 2.155 0 0 0-1.46-.56c-.533 0-1.007.187-1.42.56-.413.374-.737.887-.97 1.54s-.35 1.407-.35 2.26c0 .84.117 1.587.35 2.24s.56 1.164.98 1.53c.42.367.903.55 1.45.55ZM76.237 54.22c-1.146 0-2.167-.31-3.06-.931-.893-.62-1.59-1.473-2.09-2.56s-.75-2.337-.75-3.75.25-2.663.75-3.75 1.193-1.94 2.08-2.56 1.903-.93 3.05-.93c1.16 0 2.187.31 3.08.93.893.62 1.597 1.474 2.11 2.56s.77 2.337.77 3.75-.253 2.663-.76 3.75-1.207 1.94-2.1 2.56c-.893.62-1.92.93-3.08.93Zm.02-2.921c.533 0 1.01-.187 1.43-.56s.75-.883.99-1.53.36-1.39.36-2.23c0-.853-.12-1.606-.36-2.26-.24-.653-.574-1.166-1-1.54a2.155 2.155 0 0 0-1.46-.56c-.533 0-1.007.187-1.42.56-.413.374-.736.887-.97 1.54s-.35 1.407-.35 2.26c0 .84.117 1.587.35 2.24s.56 1.164.98 1.53c.42.367.903.55 1.45.55ZM21.861 66.824c-.392 0-.74-.085-1.042-.256-.302-.17-.54-.405-.712-.704s-.259-.642-.259-1.031.086-.732.259-1.031.41-.533.712-.704c.303-.17.65-.256 1.042-.256.235 0 .451.035.65.104a1.766 1.766 0 0 1 .907.71l-.616.385a1.022 1.022 0 0 0-.245-.264c-.101-.077-.212-.137-.333-.181s-.242-.067-.363-.067a1.193 1.193 0 0 0-1.084.627c-.106.195-.159.42-.159.677 0 .253.052.479.157.677s.252.353.443.465c.19.111.41.167.66.167.194 0 .367-.038.52-.115s.272-.185.36-.325.132-.3.132-.484l.715-.11c0 .363-.075.674-.223.93-.149.256-.354.451-.616.585s-.564.201-.905.201Zm.127-1.54v-.589h1.617v.468l-.407.121h-1.21ZM24.71 66.758v-3.85h.753v3.162h1.695v.688H24.71ZM29.897 66.824c-.39 0-.733-.085-1.031-.256-.3-.17-.533-.405-.702-.704a2.051 2.051 0 0 1-.253-1.025c0-.393.085-.738.253-1.037.169-.3.401-.532.696-.701a2.019 2.019 0 0 1 1.02-.253c.39 0 .73.085 1.026.256.295.17.527.405.696.704.168.298.253.642.253 1.03 0 .386-.084.727-.25 1.026s-.398.533-.693.704a1.99 1.99 0 0 1-1.015.256Zm0-.687c.234 0 .44-.056.619-.168.177-.112.317-.265.418-.46.1-.194.151-.417.151-.67 0-.257-.052-.483-.154-.677s-.244-.348-.424-.459a1.158 1.158 0 0 0-.627-.168 1.15 1.15 0 0 0-1.045.627c-.103.194-.154.42-.154.677 0 .253.051.476.154.67a1.16 1.16 0 0 0 1.062.628ZM33.015 66.758v-3.85h1.304c.263 0 .494.04.693.121.197.08.352.202.462.365s.165.367.165.609c0 .15-.038.288-.113.415-.075.126-.18.235-.317.327.18.092.319.214.416.365a.997.997 0 0 1 .145.548c0 .235-.053.435-.159.6a.997.997 0 0 1-.446.374c-.19.084-.414.126-.67.126h-1.48Zm.737-2.282h.583a.566.566 0 0 0 .39-.127.452.452 0 0 0 .144-.358.431.431 0 0 0-.16-.357c-.106-.084-.251-.126-.434-.126h-.523v.968Zm0 1.617h.671c.18 0 .321-.045.424-.135s.153-.21.153-.36c0-.158-.056-.282-.17-.371s-.27-.135-.467-.135h-.611v1ZM36.558 66.758l1.518-3.85h.753l-1.474 3.85h-.797Zm.715-.847v-.666h2.414v.666h-2.414Zm2.326.847-1.474-3.85h.754l1.518 3.85h-.798ZM41.408 66.758v-3.85h.754v3.162h1.694v.688h-2.448ZM48.063 66.824a2.03 2.03 0 0 1-.544-.071 1.652 1.652 0 0 1-.452-.201 1.403 1.403 0 0 1-.326-.29.798.798 0 0 1-.168-.334l.736-.22c.048.124.132.231.253.321s.274.137.457.14c.195.004.353-.038.476-.126a.402.402 0 0 0 .038-.647.999.999 0 0 0-.398-.19l-.5-.131a1.542 1.542 0 0 1-.495-.218.995.995 0 0 1-.456-.86c0-.363.12-.647.359-.85.24-.204.58-.305 1.02-.305.246 0 .461.036.647.107.185.071.34.173.464.306.125.131.22.287.286.466l-.731.226a.673.673 0 0 0-.243-.318.722.722 0 0 0-.445-.133c-.183 0-.327.043-.431.127s-.157.203-.157.357c0 .121.041.217.123.286.083.07.196.123.34.16l.505.127c.33.08.587.225.77.434.183.21.275.442.275.698 0 .228-.055.426-.165.597s-.27.304-.479.398a1.814 1.814 0 0 1-.758.144ZM50.66 66.758v-3.85h2.435v.688h-1.683v.874h1.452v.67h-1.452v.93h1.706v.688H50.66ZM54.448 66.758v-3.85h.754v3.162h1.694v.688h-2.448ZM57.951 66.758v-3.85h.754v3.162H60.4v.688H57.95ZM61.454 66.758v-3.85h2.437v.688h-1.683v.874h1.451v.67h-1.451v.93h1.705v.688h-2.459ZM65.243 66.758v-3.85h1.43c.271 0 .512.053.72.16s.373.251.49.437c.118.185.177.4.177.646 0 .242-.062.457-.185.646-.123.19-.29.336-.503.44a1.628 1.628 0 0 1-.726.157h-.649v1.364h-.754Zm.754-2.051h.682a.642.642 0 0 0 .305-.072.549.549 0 0 0 .214-.198.523.523 0 0 0 .08-.286.505.505 0 0 0-.178-.401.675.675 0 0 0-.46-.154h-.643v1.11Zm1.363 2.05-.89-1.544.577-.413 1.166 1.958h-.853ZM70.635 66.824c-.196 0-.376-.024-.545-.071-.169-.048-.32-.115-.451-.201s-.241-.183-.327-.29a.811.811 0 0 1-.168-.334l.737-.22c.048.124.132.231.253.321s.273.137.456.14a.78.78 0 0 0 .476-.126.403.403 0 0 0 .039-.647 1.005 1.005 0 0 0-.399-.19l-.5-.131a1.561 1.561 0 0 1-.496-.218.995.995 0 0 1-.456-.86c0-.363.12-.647.36-.85.24-.204.58-.305 1.02-.305.246 0 .462.036.646.107.186.071.341.173.465.306.125.131.22.287.286.466l-.731.226c-.044-.124-.125-.23-.242-.318s-.266-.133-.446-.133c-.183 0-.327.043-.431.127s-.157.203-.157.357c0 .121.042.217.124.286.083.07.195.123.338.16l.506.127c.33.08.586.225.77.434s.275.442.275.698c0 .228-.055.426-.165.597-.11.17-.27.304-.478.398a1.814 1.814 0 0 1-.76.144Z"/></svg>
