<svg width="43" height="36" viewBox="0 0 43 36" fill="none" xmlns="http://www.w3.org/2000/svg">
<g clip-path="url(#clip0_5494_17452)">
<g clip-path="url(#clip1_5494_17452)">
<path d="M12.2183 5.29791C12.286 5.29672 12.3562 5.26224 12.4168 5.22776C12.5381 5.16 12.5642 5.04111 12.5595 4.91152C12.5547 4.78906 12.4989 4.69514 12.3847 4.65234C12.3015 4.62143 12.2088 4.60122 12.1208 4.59884C11.8794 4.59171 11.6381 4.59646 11.3968 4.59646C11.367 4.59646 11.3373 4.60241 11.3064 4.60597C11.3064 4.84019 11.3064 5.06489 11.3064 5.2991C11.6191 5.30029 11.9187 5.30504 12.2183 5.29791Z" fill="#2B2926"/>
<path d="M25.6126 9.91437C25.4521 10.3043 25.3083 10.6681 25.168 11.0474C25.4581 11.0474 25.7303 11.0474 26.0275 11.0474C25.8884 10.6681 25.7553 10.3043 25.6126 9.91437Z" fill="#2B2926"/>
<path d="M18.7727 4.60125C18.737 4.59887 18.7014 4.5965 18.6657 4.5965C18.416 4.5965 18.1676 4.5965 17.9179 4.5965C17.8799 4.5965 17.8406 4.60006 17.7966 4.60244C17.7966 4.89134 17.7966 5.17073 17.7966 5.47033C17.8489 5.47033 17.8917 5.47033 17.9345 5.47033C18.1842 5.47033 18.4339 5.46082 18.6824 5.4739C18.9689 5.48816 19.1199 5.38354 19.1496 5.0994C19.1817 4.79623 19.0331 4.61909 18.7727 4.60125Z" fill="#2B2926"/>
<path d="M5.80673 16.3713C5.49881 16.3641 5.1897 16.3689 4.88177 16.3701C4.87464 16.3701 4.86751 16.376 4.85205 16.3844C4.85205 16.7077 4.85205 17.0264 4.85205 17.3521C4.88415 17.3545 4.91031 17.3592 4.93646 17.3592C5.21704 17.3592 5.49762 17.3616 5.7782 17.3592C6.05045 17.3569 6.22403 17.2023 6.25494 16.9312C6.28348 16.6887 6.17885 16.3808 5.80673 16.3713Z" fill="#2B2926"/>
<path d="M12.1269 5.92802C11.8856 5.92326 11.6442 5.92564 11.4041 5.92683C11.3779 5.92683 11.353 5.93515 11.3232 5.9399C11.3232 6.21097 11.3232 6.47491 11.3232 6.75311C11.353 6.75667 11.372 6.76024 11.391 6.76024C11.6561 6.76024 11.9213 6.76262 12.1852 6.75905C12.2637 6.75786 12.3433 6.74716 12.4182 6.72457C12.5763 6.67939 12.6607 6.56169 12.6762 6.40357C12.6917 6.24545 12.65 6.10635 12.5026 6.01599C12.3873 5.94466 12.2577 5.93039 12.1269 5.92802Z" fill="#2B2926"/>
<path d="M35.9415 23.0362C35.1842 23.4986 34.4459 23.9885 33.7445 24.533C32.8516 25.2273 32.0313 26.0013 31.2597 26.8275C30.3454 27.8072 29.5072 28.8498 28.7297 29.9412C28.0354 30.9161 27.3851 31.9184 26.8097 32.9682C26.7942 32.9955 26.7776 33.024 26.755 33.0443C26.6991 33.0918 26.6254 33.0692 26.6052 32.9991C26.598 32.9729 26.5957 32.9444 26.5945 32.917C26.585 32.6365 26.5636 32.3547 26.5695 32.0741C26.5766 31.7424 26.6004 31.4095 26.6278 31.079C26.6741 30.506 26.7752 29.9424 26.9036 29.3825C27.177 28.1888 27.5979 27.0475 28.1353 25.949C28.7428 24.7066 29.4835 23.5474 30.33 22.4548C31.0706 21.4989 31.8636 20.5894 32.7672 19.781C33.7112 18.9369 34.7419 18.2223 35.8868 17.6766C35.9261 17.6576 35.9629 17.635 35.9998 17.6136C36.001 17.6136 36.001 17.6124 36.0022 17.6124V4.29687C36.0033 2.00231 34.1439 0.142883 31.8494 0.142883H4.44305C2.14849 0.142883 0.289062 2.00231 0.289062 4.29687V31.7032C0.289062 33.9977 2.14849 35.8572 4.44305 35.8572H31.8494C34.1439 35.8572 36.0033 33.9977 36.0033 31.7032V23.0053C36.001 23.0076 35.9974 23.0088 35.995 23.0112C35.9772 23.0195 35.9582 23.0267 35.9415 23.0362ZM32.1192 11.1829C32.0134 11.0676 31.8696 11.0177 31.7293 10.9654C31.589 10.913 31.4428 10.8726 31.3037 10.8179C31.1824 10.7704 31.0611 10.7193 30.947 10.6562C30.6783 10.51 30.5202 10.2877 30.4964 9.9762C30.4726 9.66709 30.5642 9.40672 30.8067 9.20699C30.9529 9.08691 31.1218 9.01201 31.3084 8.97753C31.5997 8.92403 31.8838 8.93949 32.1573 9.06075C32.4474 9.19034 32.6424 9.40553 32.7387 9.72416C32.5532 9.78598 32.3749 9.84542 32.1965 9.90487C32.1775 9.8799 32.162 9.86682 32.1537 9.85018C32.055 9.65044 31.8815 9.57198 31.671 9.5589C31.5355 9.55058 31.4059 9.5589 31.2823 9.6338C31.1325 9.72534 31.1099 10.0071 31.2846 10.0927C31.394 10.1462 31.5034 10.2021 31.6175 10.2473C31.7495 10.2996 31.8862 10.3424 32.0206 10.3899C32.212 10.4577 32.3927 10.5469 32.5496 10.6776C32.8029 10.8857 32.8944 11.1603 32.8694 11.4801C32.8361 11.9022 32.5496 12.2624 32.0455 12.3718C31.6722 12.4527 31.3048 12.4384 30.9613 12.2529C30.6819 12.1019 30.4869 11.876 30.3751 11.5776C30.3668 11.5562 30.3632 11.5325 30.3549 11.4968C30.5523 11.4243 30.7377 11.3565 30.9351 11.284C30.9648 11.3315 30.9934 11.3779 31.0231 11.4231C31.1491 11.6228 31.3179 11.7643 31.5569 11.8035C31.721 11.8297 31.8803 11.8142 32.0289 11.7334C32.2227 11.6276 32.269 11.347 32.1192 11.1829ZM27.8273 8.99061C28.0354 8.99061 28.2375 8.99061 28.4551 8.99061C28.4646 9.14041 28.4586 9.28902 28.4598 9.43644C28.461 9.58743 28.4598 9.73723 28.4598 9.88822C28.4598 10.0428 28.4598 10.1973 28.4598 10.3519C28.4598 10.5029 28.4598 10.6527 28.4598 10.8037C28.4598 10.9547 28.4598 11.1045 28.4598 11.2554C28.4598 11.4052 28.4598 11.555 28.4598 11.7155C29.0008 11.7155 29.5286 11.7155 30.0541 11.7155C30.0815 11.8095 30.0874 12.1697 30.0672 12.3243C29.9828 12.3468 27.9831 12.3528 27.8297 12.3314C27.8083 12.2458 27.8036 9.1309 27.8273 8.99061ZM24.4295 11.2257C24.571 10.8524 24.7148 10.4791 24.8563 10.1058C24.9978 9.73604 25.1381 9.3663 25.2807 8.99061C25.4959 8.99061 25.6969 8.99061 25.912 8.99061C26.3353 10.0998 26.7585 11.2115 27.1865 12.335C26.9523 12.335 26.7371 12.335 26.5112 12.335C26.4245 12.1103 26.3365 11.882 26.2485 11.6525C25.8157 11.6525 25.3889 11.6525 24.955 11.6525C24.8718 11.8796 24.7885 12.1055 24.7041 12.3361C24.4759 12.3361 24.2512 12.3361 24.0086 12.3361C24.1453 11.9581 24.2904 11.5931 24.4295 11.2257ZM22.7496 8.9918C22.9636 8.9918 23.1693 8.9918 23.3821 8.9918C23.3821 10.1058 23.3821 11.215 23.3821 12.3338C23.1728 12.3338 22.9648 12.3338 22.7496 12.3338C22.7496 11.2233 22.7496 10.1141 22.7496 8.9918ZM14.0778 4.01391C14.1622 3.99132 16.181 3.983 16.3617 4.00678C16.3617 4.20651 16.3617 4.4003 16.3617 4.60836C16.2273 4.61549 16.0942 4.61074 15.961 4.61192C15.8219 4.61311 15.684 4.61192 15.5449 4.61192C15.4106 4.61192 15.2762 4.61192 15.1407 4.61192C15.0063 4.61192 14.8732 4.61192 14.7305 4.61192C14.7305 4.84495 14.7305 5.06846 14.7305 5.30743C15.0468 5.30743 15.3606 5.30743 15.6828 5.30743C15.6828 5.51786 15.6828 5.71284 15.6828 5.92327C15.3666 5.92327 15.0527 5.92327 14.7305 5.92327C14.7305 6.19672 14.7305 6.45589 14.7305 6.73172C15.0159 6.74242 15.3024 6.73528 15.5889 6.73647C15.873 6.73766 16.1572 6.73647 16.4592 6.73647C16.4592 6.84347 16.4604 6.93977 16.4604 7.03726C16.4604 7.13594 16.4604 7.23462 16.4604 7.33092C16.3712 7.35707 14.2906 7.36777 14.0861 7.344C14.0636 7.26196 14.054 4.20057 14.0778 4.01391ZM14.2692 10.2996C14.4274 10.3008 14.5843 10.2996 14.7388 10.2996C14.7686 10.3911 14.7757 10.7311 14.7519 10.9119C14.4404 10.9249 14.1266 10.9107 13.7984 10.9202C13.7901 11.1889 13.7961 11.4504 13.7949 11.7239C14.381 11.7239 14.954 11.7239 15.5211 11.7239C15.5544 11.8166 15.5592 12.2101 15.5318 12.3361C14.7472 12.3361 13.9601 12.3361 13.1743 12.3361C13.1481 12.2529 13.1374 9.23196 13.1612 9.00607C13.2444 8.98229 15.2786 8.97515 15.4308 9.00012C15.4308 9.19985 15.4308 9.39246 15.4308 9.6017C14.8863 9.6017 14.3477 9.6017 13.8008 9.6017C13.8008 9.8371 13.8008 10.057 13.8008 10.2948C13.9566 10.3055 14.1135 10.2984 14.2692 10.2996ZM10.6395 4.04363C10.6395 4.03293 10.6455 4.02105 10.6514 3.99965C10.6859 3.99846 10.7133 3.99489 10.7406 3.99489C11.2197 3.99489 11.6988 3.9937 12.178 3.99608C12.373 3.99727 12.5632 4.02818 12.7439 4.10902C13.16 4.29568 13.2551 4.72844 13.2159 5.02328C13.1862 5.25393 13.0756 5.43107 12.8806 5.55709C12.8687 5.56541 12.858 5.57612 12.8414 5.58919C12.9068 5.63199 12.9698 5.66409 13.0233 5.70808C13.2825 5.9197 13.3585 6.20147 13.3098 6.51891C13.2349 7.00397 12.9282 7.2905 12.4395 7.34994C12.3611 7.35945 12.2814 7.36777 12.2029 7.36777C11.7155 7.36896 11.2292 7.36896 10.7418 7.36896C10.7144 7.36896 10.6871 7.36896 10.6645 7.36896C10.6562 7.36064 10.6526 7.35826 10.6502 7.3547C10.6479 7.35232 10.6431 7.34875 10.6431 7.34637C10.6407 7.32735 10.6372 7.30714 10.6372 7.28693C10.6384 6.20623 10.6384 5.12434 10.6395 4.04363ZM7.08001 3.99608C7.25834 3.99489 7.43668 3.99965 7.61382 3.9937C7.68278 3.99132 7.71963 4.01867 7.75411 4.07573C7.98951 4.46569 8.22729 4.85327 8.46388 5.24204C8.48409 5.27533 8.50668 5.30861 8.5364 5.35498C8.56612 5.30861 8.59228 5.27176 8.61487 5.23253C8.84908 4.85089 9.08329 4.47045 9.31275 4.08643C9.35555 4.0151 9.4031 3.99132 9.48276 3.9937C9.6492 3.99965 9.81565 3.99489 9.9809 3.99608C10.0106 3.99608 10.0415 3.99846 10.0855 4.00083C10.0594 4.04839 10.0403 4.08643 10.0189 4.1221C9.65158 4.732 9.28421 5.3419 8.91447 5.95062C8.87523 6.01482 8.85859 6.07783 8.85859 6.15154C8.86097 6.50345 8.85978 6.85655 8.85978 7.20846C8.85978 7.25126 8.85978 7.29406 8.85978 7.34756C8.63508 7.34756 8.43059 7.34756 8.21064 7.34756C8.21064 7.3012 8.21064 7.2584 8.21064 7.21678C8.21064 6.86012 8.20945 6.50464 8.21183 6.14797C8.21183 6.07426 8.19519 6.01125 8.15714 5.94705C7.79215 5.34547 7.42835 4.74151 7.06455 4.13875C7.04077 4.09951 7.01819 4.05909 6.98727 4.0044C7.02889 4.00083 7.05504 3.99608 7.08001 3.99608ZM3.99959 5.4275C4.0198 5.25511 4.05428 5.08273 4.10659 4.91747C4.22548 4.54059 4.44424 4.2398 4.80685 4.05909C5.25149 3.83796 5.98385 3.89621 6.375 4.33848C6.46178 4.43716 6.53787 4.54178 6.589 4.68682C6.39521 4.77599 6.20974 4.86159 6.01833 4.94838C5.98266 4.90201 5.94581 4.8604 5.91608 4.81404C5.71159 4.48709 5.10764 4.45142 4.86391 4.87229C4.75097 5.06846 4.68915 5.27889 4.67488 5.50359C4.66061 5.72235 4.67845 5.93754 4.7367 6.15035C4.77475 6.28588 4.833 6.41072 4.91504 6.52247C5.14568 6.83515 5.57725 6.86487 5.84713 6.58429C5.91489 6.51415 5.96958 6.43093 6.03854 6.34533C6.22401 6.41785 6.41423 6.49156 6.61515 6.57003C6.52004 6.79592 6.39283 6.98376 6.21331 7.13356C6.00525 7.30833 5.76034 7.38561 5.49165 7.39987C5.15638 7.41771 4.84608 7.34875 4.57264 7.14545C4.41333 7.02656 4.29681 6.8732 4.20884 6.69724C4.00554 6.29658 3.94847 5.86858 3.99959 5.4275ZM4.01505 9.00607C4.09827 8.98348 6.12295 8.97515 6.29653 8.99774C6.29653 9.19272 6.29653 9.3877 6.29653 9.6017C6.16456 9.60764 6.03259 9.60408 5.89944 9.60408C5.76034 9.60527 5.62243 9.60408 5.48333 9.60408C5.34898 9.60408 5.21464 9.60408 5.0791 9.60408C4.94595 9.60408 4.8116 9.60408 4.67013 9.60408C4.67013 9.8371 4.67013 10.057 4.67013 10.2948C4.98162 10.3067 5.29667 10.2936 5.61529 10.302C5.61529 10.51 5.61529 10.705 5.61529 10.9154C5.29905 10.9154 4.98756 10.9154 4.67013 10.9154C4.67013 11.1889 4.67013 11.448 4.67013 11.7227C4.95665 11.7286 5.2396 11.7251 5.52375 11.7251C5.80789 11.7262 6.09323 11.7251 6.37381 11.7251C6.4071 11.8154 6.41185 12.2066 6.38451 12.3361C5.59865 12.3361 4.81279 12.3361 4.02575 12.3361C4.00078 12.2553 3.99008 9.20818 4.01505 9.00607ZM6.60921 17.7587C6.38213 17.9584 6.10749 18.0381 5.81027 18.044C5.53326 18.05 5.25625 18.0452 4.97924 18.0464C4.94 18.0464 4.90196 18.0464 4.84965 18.0464C4.84965 18.5112 4.84965 18.9642 4.84965 19.4219C4.60355 19.4219 4.37171 19.4219 4.13275 19.4219C4.13275 18.176 4.13275 16.9348 4.13275 15.69C4.15771 15.6864 4.1803 15.6817 4.20289 15.6817C4.75692 15.6829 5.31094 15.6841 5.86496 15.6888C6.06945 15.69 6.26443 15.7411 6.44514 15.8398C6.75425 16.0098 6.93259 16.2738 6.98609 16.6197C7.05623 17.062 6.95517 17.4543 6.60921 17.7587ZM6.8886 11.586C6.87909 11.561 6.87909 11.5336 6.87195 11.4968C7.0598 11.4266 7.24407 11.3589 7.44143 11.2864C7.46996 11.3292 7.49731 11.3708 7.52346 11.4124C7.65068 11.6157 7.8195 11.7619 8.06322 11.8035C8.21897 11.8309 8.36758 11.8035 8.51619 11.7488C8.73613 11.668 8.80271 11.2828 8.58039 11.1377C8.46863 11.0652 8.34499 11.0105 8.22015 10.9594C7.99664 10.8691 7.766 10.7953 7.54486 10.7014C7.35583 10.6206 7.19652 10.4969 7.10022 10.3079C6.89811 9.90962 6.95993 9.2914 7.60074 9.04292C8.00734 8.8848 8.41632 8.90977 8.80152 9.13209C9.00839 9.25098 9.14511 9.43169 9.22833 9.6552C9.2319 9.6659 9.23428 9.67779 9.23547 9.68968C9.23666 9.69681 9.23428 9.70513 9.23071 9.7301C9.0607 9.78717 8.88356 9.84661 8.729 9.89892C8.63151 9.80143 8.56374 9.70157 8.46982 9.64569C8.28079 9.53274 8.07154 9.5268 7.86468 9.60051C7.78145 9.63023 7.71488 9.68849 7.68515 9.77884C7.63998 9.91438 7.6804 10.0356 7.8195 10.1082C7.96335 10.1819 8.11434 10.2425 8.26652 10.2984C8.48171 10.3792 8.70166 10.4434 8.89901 10.5647C9.13441 10.7097 9.31275 10.8964 9.36506 11.1782C9.47087 11.7488 9.15224 12.1804 8.72424 12.3231C8.28435 12.4693 7.85041 12.4657 7.43905 12.2351C7.1775 12.0865 6.99441 11.8665 6.8886 11.586ZM10.2294 19.4196C9.39478 19.4196 8.56018 19.4196 7.71369 19.4196C7.71369 18.176 7.71369 16.9383 7.71369 15.7007C7.79929 15.6769 8.27603 15.6722 8.42702 15.6948C8.42702 16.7006 8.42702 17.7087 8.42702 18.73C9.03217 18.73 9.62661 18.73 10.2294 18.73C10.2294 18.9654 10.2294 19.1889 10.2294 19.4196ZM9.90244 11.4968C10.0915 11.4266 10.2817 11.3565 10.4767 11.2852C10.5159 11.347 10.5492 11.4005 10.5849 11.4516C10.787 11.7536 11.0913 11.8737 11.4397 11.7893C11.643 11.7405 11.7571 11.5967 11.7523 11.3981C11.75 11.2709 11.6846 11.1758 11.5835 11.1152C11.4753 11.051 11.3588 10.9998 11.2411 10.957C10.9998 10.8691 10.7525 10.7965 10.5242 10.6753C10.2686 10.5397 10.0867 10.3412 10.0499 10.0475C9.9916 9.58862 10.158 9.24741 10.5956 9.06075C11.0271 8.87648 11.4623 8.89907 11.8689 9.1523C12.0769 9.28189 12.2113 9.4733 12.2826 9.72416C12.0983 9.78598 11.92 9.84542 11.7405 9.90487C11.7214 9.87871 11.7084 9.86326 11.7 9.84661C11.6156 9.68968 11.4872 9.59694 11.3089 9.5696C11.1817 9.55058 11.0568 9.54582 10.9332 9.58149C10.787 9.62429 10.7026 9.74437 10.7061 9.8906C10.7073 9.95005 10.724 10.0024 10.7703 10.038C10.8369 10.0868 10.9035 10.1403 10.9784 10.1712C11.1686 10.2485 11.3636 10.3162 11.5562 10.3852C11.7321 10.4482 11.8962 10.5326 12.0496 10.6408C12.4918 10.9499 12.5085 11.5729 12.2517 11.9462C12.0888 12.1816 11.8617 12.3124 11.5895 12.3706C11.1852 12.4586 10.7953 12.4289 10.4315 12.2113C10.227 12.0912 9.95118 11.7845 9.90244 11.4968ZM13.7949 17.9477C13.7937 18.1094 13.783 18.2735 13.7497 18.4304C13.6356 18.9642 13.3086 19.3019 12.7772 19.4338C12.436 19.5182 12.0936 19.517 11.7559 19.4231C11.2043 19.271 10.8916 18.8798 10.806 18.3282C10.7882 18.2116 10.781 18.0916 10.781 17.9739C10.7786 17.2415 10.7798 16.5092 10.7798 15.7768C10.7798 15.7495 10.7822 15.7221 10.7846 15.6876C11.02 15.6876 11.2518 15.6876 11.5015 15.6876C11.5015 15.7304 11.5015 15.772 11.5015 15.8137C11.5015 16.5068 11.4991 17.1999 11.5027 17.893C11.5039 18.0309 11.5134 18.17 11.5395 18.3056C11.5895 18.5659 11.7547 18.7217 12.0151 18.7716C12.1958 18.8061 12.3777 18.8085 12.5584 18.7716C12.8592 18.7098 13.0268 18.5208 13.0613 18.2057C13.072 18.107 13.078 18.0083 13.078 17.9097C13.0792 17.2165 13.0792 16.5234 13.0792 15.8303C13.0792 15.7875 13.0792 15.7435 13.0792 15.6841C13.3205 15.6805 13.5547 15.6817 13.7984 15.6829C13.7984 15.7328 13.7984 15.772 13.7984 15.8113C13.7961 16.5222 13.7984 17.2344 13.7949 17.9477ZM16.7802 19.3007C16.3082 19.5599 15.5164 19.5967 14.9873 19.1604C14.765 18.9773 14.6128 18.7467 14.5165 18.4625C14.7436 18.3781 14.9528 18.2996 15.1657 18.2212C15.2156 18.2984 15.2548 18.371 15.3048 18.4363C15.539 18.7419 15.8445 18.8667 16.225 18.7787C16.4104 18.736 16.5519 18.6385 16.5899 18.4352C16.6137 18.3056 16.5888 18.1855 16.4865 18.0999C16.4057 18.0321 16.3153 17.9691 16.219 17.9287C16.049 17.8562 15.8695 17.8027 15.6959 17.7373C15.5627 17.6873 15.4284 17.6386 15.3 17.5792C15.2144 17.5399 15.1324 17.4888 15.0551 17.4353C14.5094 17.0525 14.532 16.2024 15.1145 15.8339C15.3024 15.715 15.5081 15.6496 15.728 15.6282C16.0074 15.5997 16.282 15.6234 16.5412 15.7423C16.8539 15.8862 17.0845 16.1561 17.1689 16.4866C16.9621 16.5555 16.7528 16.6257 16.5388 16.697C16.5222 16.672 16.5055 16.6506 16.4925 16.628C16.3973 16.464 16.2582 16.3641 16.074 16.3249C15.9325 16.294 15.7898 16.2952 15.6519 16.3368C15.5413 16.3701 15.4522 16.4307 15.4118 16.5472C15.3666 16.6744 15.3892 16.7874 15.4985 16.8646C15.5877 16.9276 15.6864 16.9823 15.7886 17.0228C16.024 17.1155 16.2666 17.1904 16.5008 17.2843C16.628 17.3354 16.7528 17.4008 16.8681 17.4757C17.5268 17.9073 17.4614 18.9274 16.7802 19.3007ZM18.8988 12.3361C18.7621 12.3361 18.6325 12.3361 18.5029 12.3361C18.4672 12.3361 18.4315 12.3326 18.3959 12.3373C18.3364 12.3445 18.3031 12.3171 18.271 12.2696C18.0107 11.882 17.7467 11.4968 17.484 11.1104C17.3235 10.875 17.163 10.6384 17.0049 10.4018C16.9597 10.3341 16.9193 10.2639 16.8622 10.17C16.8622 10.9047 16.8622 11.6121 16.8622 12.3266C16.6494 12.3266 16.4461 12.3266 16.2416 12.3266C16.2178 12.247 16.2083 9.14873 16.2345 8.96921C16.3058 8.96921 16.3795 8.96921 16.4532 8.96921C16.5448 8.96921 16.6363 8.97397 16.7267 8.96802C16.8063 8.96208 16.8479 9.0025 16.8884 9.06313C17.163 9.47449 17.4412 9.88466 17.7182 10.2948C17.8514 10.4922 17.9857 10.6872 18.1177 10.8857C18.1652 10.957 18.2068 11.0331 18.2651 11.1294C18.2651 10.3983 18.2651 9.69324 18.2651 8.9704C18.4827 8.97397 18.6895 8.96208 18.9 8.97991C18.8988 10.101 18.8988 11.2115 18.8988 12.3361ZM19.0735 7.23343C18.9012 6.88984 18.7276 6.54863 18.5611 6.20266C18.5219 6.12182 18.4755 6.09447 18.3887 6.09804C18.2461 6.10517 18.1034 6.09923 17.9619 6.10042C17.9239 6.10042 17.8846 6.10398 17.8359 6.10636C17.8359 6.52009 17.8359 6.92551 17.8359 7.34518C17.6005 7.34518 17.3853 7.34518 17.1606 7.34518C17.1606 6.22525 17.1606 5.11126 17.1606 3.98657C17.201 3.98419 17.2391 3.98062 17.2771 3.98062C17.7515 3.98062 18.227 3.97825 18.7014 3.98181C18.8274 3.983 18.9558 3.99132 19.0783 4.01867C19.4766 4.11021 19.7346 4.34918 19.8178 4.75935C19.8903 5.1172 19.8368 5.44534 19.5943 5.7271C19.5253 5.80676 19.4362 5.86858 19.3529 5.93397C19.3137 5.96488 19.265 5.98509 19.2103 6.01601C19.4243 6.45708 19.6347 6.89222 19.8535 7.34281C19.6026 7.34281 19.372 7.34281 19.1342 7.34281C19.114 7.30952 19.0926 7.27266 19.0735 7.23343ZM21.1422 9.61121C21.1422 10.5267 21.1422 11.4266 21.1422 12.335C20.9235 12.335 20.7202 12.335 20.5014 12.335C20.5014 11.4326 20.5014 10.5314 20.5014 9.61953C20.1733 9.59932 19.8582 9.62072 19.536 9.60646C19.536 9.39959 19.536 9.19985 19.536 8.99418C20.3873 8.99418 21.2326 8.99418 22.085 8.99418C22.085 9.19629 22.085 9.39246 22.085 9.60646C21.9304 9.61716 21.7735 9.61002 21.6178 9.61121C21.4644 9.6124 21.311 9.61121 21.1422 9.61121ZM26.3888 31.7591C26.3507 32.1728 26.3389 32.5889 26.3448 33.0038C26.3448 33.024 26.3519 33.0466 26.3436 33.0621C26.3258 33.0942 26.3056 33.1346 26.2758 33.1477C26.2521 33.1584 26.2033 33.1429 26.1819 33.1227C26.1237 33.0645 26.0725 32.9979 26.0202 32.9325C25.2154 31.9445 24.5187 30.884 23.8993 29.7712C22.9303 28.0295 22.1409 26.2105 21.531 24.3142C21.5179 24.2726 21.5036 24.231 21.4989 24.1882C21.4929 24.1311 21.5298 24.0978 21.6047 24.099C21.6249 24.1145 21.6618 24.1359 21.6915 24.1644C21.9483 24.407 22.2229 24.6269 22.5237 24.8136C23.0682 25.1512 23.6567 25.3723 24.2928 25.4615C25.0228 25.5638 25.7432 25.5162 26.4601 25.3486C27.1378 25.1893 27.7834 24.9455 28.3921 24.6067C28.4361 24.5829 28.4753 24.5627 28.5252 24.5912C28.6073 24.6376 28.6144 24.6816 28.5526 24.7755C28.2684 25.2011 28.0152 25.6434 27.7941 26.1047C27.3649 26.9999 27.051 27.9368 26.8204 28.901C26.6801 29.4895 26.5707 30.0851 26.4934 30.6843C26.4482 31.0422 26.4221 31.4012 26.3888 31.7591Z" fill="#2B2926"/>
<path opacity="0.6" d="M42.5994 20.1115C42.559 20.1258 42.5186 20.1472 42.477 20.1543C41.8694 20.2542 41.2916 20.4599 40.7186 20.6739C39.695 21.0567 38.7046 21.5156 37.738 22.0244C37.1923 22.3122 36.6597 22.6237 36.1223 22.9256C36.0784 22.9506 36.0367 22.9827 35.9939 23.0112C35.9761 23.0196 35.9571 23.0267 35.9404 23.0362C35.1831 23.4987 34.4448 23.9885 33.7434 24.533C32.8505 25.2273 32.0302 26.0013 31.2586 26.8276C30.3443 27.8072 29.5062 28.8499 28.7286 29.9413C28.0343 30.9162 27.384 31.9184 26.8086 32.9682C26.7931 32.9955 26.7765 33.0241 26.7539 33.0443C26.698 33.0918 26.6243 33.0692 26.6041 32.9991C26.5969 32.9729 26.5946 32.9444 26.5934 32.9171C26.5839 32.6365 26.5625 32.3547 26.5684 32.0741C26.5755 31.7424 26.5993 31.4096 26.6267 31.079C26.673 30.506 26.7741 29.9425 26.9025 29.3825C27.1759 28.1888 27.5968 27.0475 28.1342 25.949C28.7417 24.7066 29.4824 23.5474 30.3289 22.4548C31.0696 21.499 31.8625 20.5895 32.7661 19.781C33.7101 18.9369 34.7408 18.2224 35.8858 17.6767C35.925 17.6577 35.9618 17.6351 35.9987 17.6137C36.2436 17.5138 36.4873 17.4104 36.7346 17.3141C37.3148 17.0882 37.9104 16.9158 38.5227 16.8076C38.7795 16.7624 39.0363 16.722 39.2955 16.6935C39.5725 16.6637 39.8388 16.7256 40.092 16.8373C40.3809 16.9657 40.6318 17.1512 40.8624 17.3652C41.3142 17.7884 41.6673 18.2878 41.9859 18.8144C42.1976 19.164 42.389 19.523 42.553 19.8975C42.5673 19.9296 42.5828 19.9605 42.5982 19.9914C42.5994 20.0319 42.5994 20.0723 42.5994 20.1115Z" fill="#2B2926"/>
</g>
</g>
<defs>
<clipPath id="clip0_5494_17452">
<rect width="42.3103" height="35.7143" fill="white" transform="translate(0.289062 0.142883)"/>
</clipPath>
<clipPath id="clip1_5494_17452">
<rect width="42.3103" height="35.7143" fill="white" transform="translate(0.289062 0.142883)"/>
</clipPath>
</defs>
</svg>
